<svg width="153" height="28" viewBox="0 0 153 28" fill="none" xmlns="http://www.w3.org/2000/svg">
<path d="M7.83024 20.5849C6.36326 20.5849 5.04869 20.3463 3.88654 19.8691C2.72439 19.392 1.79086 18.6858 1.08595 17.7505C0.400085 16.8153 0.0381034 15.6892 0 14.3722H5.20111C5.27731 15.1166 5.53451 15.6892 5.9727 16.09C6.41089 16.4717 6.98244 16.6626 7.68735 16.6626C8.41132 16.6626 8.98287 16.5003 9.402 16.1759C9.82114 15.8323 10.0307 15.3647 10.0307 14.773C10.0307 14.2768 9.85924 13.8664 9.51631 13.5419C9.19243 13.2175 8.78282 12.9502 8.28748 12.7403C7.81119 12.5303 7.12533 12.2918 6.2299 12.0245C4.93438 11.6237 3.87702 11.2229 3.05779 10.8221C2.23857 10.4213 1.53366 9.82958 0.943058 9.04703C0.352456 8.26449 0.057155 7.24335 0.057155 5.98364C0.057155 4.11316 0.73349 2.65303 2.08616 1.60327C3.43883 0.534424 5.20111 0 7.373 0C9.58299 0 11.3643 0.534424 12.717 1.60327C14.0697 2.65303 14.7936 4.1227 14.8889 6.01227H9.60205C9.56394 5.36333 9.3258 4.85753 8.88761 4.49489C8.44942 4.11316 7.88739 3.92229 7.20153 3.92229C6.61093 3.92229 6.13464 4.08453 5.77266 4.409C5.41068 4.71438 5.22969 5.16292 5.22969 5.7546C5.22969 6.40354 5.53451 6.90934 6.14417 7.27198C6.75382 7.63463 7.7064 8.0259 9.00192 8.44581C10.2974 8.8848 11.3453 9.3047 12.1454 9.70552C12.9647 10.1063 13.6696 10.6885 14.2602 11.4519C14.8508 12.2154 15.1461 13.1984 15.1461 14.4008C15.1461 15.546 14.8508 16.5862 14.2602 17.5215C13.6886 18.4567 12.8504 19.2011 11.7454 19.7546C10.6404 20.3081 9.33532 20.5849 7.83024 20.5849Z" fill="#D93232"/>
<path d="M27.8698 4.23722C29.7368 4.23722 31.2229 4.84799 32.3279 6.06953C33.4519 7.27198 34.0139 8.93252 34.0139 11.0511V20.3845H29.1558V11.7096C29.1558 10.6408 28.8795 9.8105 28.327 9.21881C27.7745 8.62713 27.0315 8.33129 26.098 8.33129C25.1644 8.33129 24.4214 8.62713 23.8689 9.21881C23.3164 9.8105 23.0402 10.6408 23.0402 11.7096V20.3845H18.1534V4.409H23.0402V6.52761C23.5355 5.8214 24.2023 5.26789 25.0406 4.86707C25.8789 4.44717 26.8219 4.23722 27.8698 4.23722Z" fill="#D93232"/>
<path d="M36.4381 12.3681C36.4381 10.7267 36.7429 9.28562 37.3526 8.04499C37.9813 6.80436 38.8291 5.85003 39.896 5.182C40.9629 4.51397 42.1536 4.17996 43.4682 4.17996C44.5922 4.17996 45.5734 4.409 46.4117 4.86707C47.269 5.32515 47.9263 5.92638 48.3835 6.67076V4.409H53.2703V20.3845H48.3835V18.1227C47.9072 18.8671 47.2404 19.4683 46.3831 19.9264C45.5448 20.3845 44.5637 20.6135 43.4396 20.6135C42.1441 20.6135 40.9629 20.2795 39.896 19.6115C38.8291 18.9243 37.9813 17.9605 37.3526 16.7198C36.7429 15.4601 36.4381 14.0095 36.4381 12.3681ZM48.3835 12.3967C48.3835 11.1752 48.0406 10.2113 47.3547 9.50511C46.6879 8.79891 45.8687 8.44581 44.8971 8.44581C43.9254 8.44581 43.0967 8.79891 42.4108 9.50511C41.744 10.1922 41.4106 11.1466 41.4106 12.3681C41.4106 13.5896 41.744 14.5631 42.4108 15.2883C43.0967 15.9945 43.9254 16.3476 44.8971 16.3476C45.8687 16.3476 46.6879 15.9945 47.3547 15.2883C48.0406 14.5821 48.3835 13.6183 48.3835 12.3967Z" fill="#D93232"/>
<path d="M61.6924 6.67076C62.1687 5.92638 62.826 5.32515 63.6642 4.86707C64.5025 4.409 65.4837 4.17996 66.6077 4.17996C67.9223 4.17996 69.113 4.51397 70.1799 5.182C71.2468 5.85003 72.0851 6.80436 72.6947 8.04499C73.3234 9.28562 73.6378 10.7267 73.6378 12.3681C73.6378 14.0095 73.3234 15.4601 72.6947 16.7198C72.0851 17.9605 71.2468 18.9243 70.1799 19.6115C69.113 20.2795 67.9223 20.6135 66.6077 20.6135C65.5027 20.6135 64.5216 20.3845 63.6642 19.9264C62.826 19.4683 62.1687 18.8766 61.6924 18.1513V28H56.8056V4.409H61.6924V6.67076ZM68.6653 12.3681C68.6653 11.1466 68.3224 10.1922 67.6365 9.50511C66.9697 8.79891 66.1409 8.44581 65.1503 8.44581C64.1786 8.44581 63.3499 8.79891 62.664 9.50511C61.9972 10.2113 61.6638 11.1752 61.6638 12.3967C61.6638 13.6183 61.9972 14.5821 62.664 15.2883C63.3499 15.9945 64.1786 16.3476 65.1503 16.3476C66.1219 16.3476 66.9506 15.9945 67.6365 15.2883C68.3224 14.5631 68.6653 13.5896 68.6653 12.3681Z" fill="#D93232"/>
<path d="M94.1482 20.3845H89.2614L81.0882 7.98773V20.3845H76.2015V0.286298H81.0882L89.2614 12.7403V0.286298H94.1482V20.3845Z" fill="#D93232"/>
<path d="M112.722 12.1391C112.722 12.5971 112.694 13.0743 112.636 13.5706H101.577C101.653 14.5631 101.968 15.3265 102.52 15.8609C103.092 16.3763 103.787 16.6339 104.606 16.6339C105.826 16.6339 106.673 16.1186 107.15 15.0879H112.351C112.084 16.1377 111.598 17.0825 110.893 17.9223C110.207 18.7621 109.341 19.4206 108.293 19.8977C107.245 20.3749 106.073 20.6135 104.778 20.6135C103.215 20.6135 101.825 20.2795 100.605 19.6115C99.386 18.9434 98.4335 17.9891 97.7476 16.7485C97.0617 15.5078 96.7188 14.0573 96.7188 12.3967C96.7188 10.7362 97.0522 9.28562 97.719 8.04499C98.4049 6.80436 99.3575 5.85003 100.577 5.182C101.796 4.51397 103.196 4.17996 104.778 4.17996C106.321 4.17996 107.693 4.50443 108.893 5.15337C110.093 5.80232 111.027 6.72802 111.693 7.93047C112.379 9.13292 112.722 10.5358 112.722 12.1391ZM107.721 10.8507C107.721 10.0109 107.435 9.34288 106.864 8.84663C106.292 8.35037 105.578 8.10225 104.721 8.10225C103.901 8.10225 103.206 8.34083 102.634 8.818C102.082 9.29516 101.739 9.97273 101.606 10.8507H107.721Z" fill="#D93232"/>
<path d="M138.191 4.409L133.876 20.3845H128.474L125.96 10.0204L123.359 20.3845H117.987L113.643 4.409H118.529L120.787 15.8323L123.473 4.409H128.646L131.361 15.7751L133.59 4.409H138.191Z" fill="#D93232"/>
<path d="M146.541 20.6135C145.151 20.6135 143.912 20.3749 142.826 19.8977C141.74 19.4206 140.883 18.7716 140.254 17.9509C139.626 17.1111 139.273 16.1759 139.197 15.1452H144.027C144.084 15.6987 144.341 16.1472 144.798 16.4908C145.255 16.8344 145.818 17.0061 146.484 17.0061C147.094 17.0061 147.561 16.8916 147.885 16.6626C148.228 16.4145 148.399 16.0995 148.399 15.7178C148.399 15.2597 148.161 14.9257 147.685 14.7157C147.208 14.4867 146.437 14.2386 145.37 13.9714C144.227 13.7042 143.274 13.4274 142.512 13.1411C141.75 12.8357 141.093 12.3681 140.54 11.7382C139.988 11.0893 139.711 10.2209 139.711 9.13292C139.711 8.21677 139.959 7.3865 140.454 6.64213C140.969 5.87866 141.712 5.27744 142.684 4.83844C143.674 4.39945 144.846 4.17996 146.199 4.17996C148.199 4.17996 149.771 4.67621 150.914 5.66871C152.076 6.66121 152.743 7.97819 152.914 9.61963H148.399C148.323 9.06612 148.075 8.62713 147.656 8.30266C147.256 7.97819 146.722 7.81595 146.056 7.81595C145.484 7.81595 145.046 7.93047 144.741 8.15951C144.436 8.36946 144.284 8.6653 144.284 9.04703C144.284 9.50511 144.522 9.84867 144.998 10.0777C145.494 10.3067 146.256 10.5358 147.285 10.7648C148.466 11.0702 149.428 11.3756 150.171 11.681C150.914 11.9673 151.562 12.4444 152.114 13.1125C152.686 13.7614 152.981 14.6394 153 15.7464C153 16.6817 152.733 17.5215 152.2 18.2658C151.685 18.9911 150.933 19.5637 149.942 19.9836C148.971 20.4035 147.837 20.6135 146.541 20.6135Z" fill="#D93232"/>
</svg>
